<svg role="img" viewBox="0 0 24 24" xmlns="http://www.w3.org/2000/svg" id="Tableau--Streamline-Simple-Icons" height="24" width="24"><desc>Tableau Streamline Icon: https://streamlinehq.com</desc><title>Tableau</title><path d="M11.654 0.174v2.203H9.682v0.58h1.972V5.16h0.696V2.957h1.97v-0.58h-1.97V0.174h-0.348zm6.03 2.262 -0.002 1.623v1.623h-2.957v0.927h2.957v3.188h1.043l0.011 -1.582 0.02 -1.576 1.465 -0.02 1.46 -0.01v-0.927h-2.953V2.436h-0.522zm-12.407 0.06v3.19H2.291v0.925h2.986v3.19h0.985V6.61h3.013v-0.925H6.262V2.496H5.77zm6.086 5.27v3.593H8.06v1.188h3.304v3.596h1.28v-3.596h3.309v-1.188h-3.31V7.766h-0.637zm9.721 1.55v2.221h-2.012v0.811h2.012v2.261h0.887v-2.261H24v-0.811h-2.029v-2.22h-0.422zm-19.111 0.131v2.174H0v0.621h1.973v2.194h0.667v-2.194h2v-0.62H2.609V9.446h-0.318zm15.709 4.516v3.254h-3.016v0.927h3.016v3.217h1.072v-3.216h2.986v-0.928h-2.986v-3.254h-0.533zm-12.463 0.008v3.246H2.262v0.928h2.957v3.189H6.32v-3.189h2.955v-0.928H6.32V13.97h-0.55zm6.316 4.578 0.002 1.103v1.1H9.566v0.812h1.971v2.262h0.928l0.012 -1.119 0.017 -1.143h1.969v-0.812h-2v-2.203h-0.465z" fill="#000000" stroke-width="1"></path></svg>